<?xml version="1.0" encoding="UTF-8" standalone="no"?>
<!DOCTYPE svg PUBLIC "-//W3C//DTD SVG 1.1//EN" "http://www.w3.org/Graphics/SVG/1.1/DTD/svg11.dtd">
<svg width="100%" height="100%" viewBox="0 0 2100 2100" version="1.1" xmlns="http://www.w3.org/2000/svg" xmlns:xlink="http://www.w3.org/1999/xlink" xml:space="preserve" xmlns:serif="http://www.serif.com/" style="fill-rule:evenodd;clip-rule:evenodd;stroke-linejoin:round;stroke-miterlimit:2;">
    <g transform="matrix(1.72554,0,0,0.819667,-1216.51,1217.96)">
        <g id="embed-icon" serif:id="embed icon">
            <g id="_--pdf-" serif:id="&lt;/pdf&gt;">
                <g id="Page" transform="matrix(0.579529,0,0,1.22001,705.003,-1485.93)">
                    <path d="M1825.43,590.808L1825.43,590.796L1825.42,590.778L1825.39,590.629L1825.36,590.527L1825.34,590.454L1825.31,590.346L1825.3,590.284L1825.29,590.243C1824.07,585.65 1821.72,581.298 1818.23,577.633L1818.22,577.629L1818.16,577.56L1817.99,577.385L1817.97,577.368L1817.81,577.207L1817.73,577.117L1248.09,7.485C1248.09,7.485 1247.84,7.239 1247.84,7.239L1247.84,7.231L1247.83,7.22L1247.71,7.113L1247.59,6.996L1247.58,6.984L1247.55,6.96L1247.41,6.824L1247.34,6.756L1247.32,6.744L1247.28,6.704L1247.12,6.554L1247.08,6.519L1247.07,6.51L1247.01,6.451L1246.83,6.294L1246.82,6.282C1245.08,4.739 1243.2,3.44 1241.23,2.384C1237.13,0.188 1232.44,-1.058 1227.47,-1.058L298.179,-1.058C282.071,-1.058 269.013,12.001 269.013,28.109L269.013,2071.89C269.013,2079.63 272.087,2087.05 277.558,2092.52C283.029,2097.99 290.45,2101.06 298.187,2101.06L1797.11,2100.68C1813.21,2100.67 1826.27,2087.61 1826.27,2071.51L1826.27,1875.98C1826.27,1859.88 1813.2,1846.81 1797.1,1846.81C1781,1846.81 1767.93,1859.88 1767.93,1875.98L1767.93,2042.35C1767.93,2042.35 327.346,2042.72 327.346,2042.72C327.346,1812.22 327.346,287.747 327.346,57.276C327.346,57.276 1043.74,57.276 1198.3,57.276C1198.3,57.276 1198.3,598.124 1198.3,598.124C1198.3,605.863 1201.38,613.284 1206.85,618.755C1212.33,624.225 1219.75,627.296 1227.49,627.291L1767.93,626.928C1767.93,626.928 1767.93,1132.2 1767.93,1132.2C1767.93,1148.3 1781,1161.37 1797.1,1161.37C1813.2,1161.37 1826.27,1148.3 1826.27,1132.2L1826.27,597.741C1826.27,595.386 1825.98,593.059 1825.43,590.808Z" style="fill:rgb(238,99,99);"/>
                </g>
                <path d="M1433.16,281.524C1446.41,311.316 1453.03,355.054 1453.03,412.738C1453.03,473.59 1446.53,519.969 1433.54,551.875C1420.54,583.78 1403.8,599.733 1383.33,599.733C1370.28,599.733 1359.44,592.866 1350.81,579.131C1346.09,571.525 1341.47,560.432 1336.95,545.853L1336.95,725.875L1294.5,725.875L1294.5,244.442L1335.6,244.442L1335.6,295.469C1340.22,280.468 1345.14,268.635 1350.36,259.972C1359.89,244.548 1371.23,236.835 1384.38,236.835C1403.55,236.835 1419.81,251.732 1433.16,281.524ZM1408.77,417.175C1408.77,390.552 1405.88,366.992 1400.11,346.497C1394.34,326.001 1384.98,315.754 1372.03,315.754C1356.48,315.754 1345.79,331.284 1339.97,362.344C1336.95,378.825 1335.45,399.743 1335.45,425.098C1335.45,465.244 1340.52,493.452 1350.66,509.721C1356.68,519.23 1363.8,523.984 1372.03,523.984C1383.98,523.984 1393.09,514.264 1399.36,494.825C1405.63,475.386 1408.77,449.503 1408.77,417.175Z" style="fill:rgb(238,99,99);fill-rule:nonzero;"/>
                <path d="M1624.14,123.371L1624.14,589.907L1582.44,589.907L1582.44,542.049C1576.32,562.545 1569.34,577.441 1561.52,586.738C1553.69,596.035 1543.95,600.683 1532.31,600.683C1513.14,600.683 1497,584.361 1483.9,551.716C1470.81,519.071 1464.26,477.182 1464.26,426.049C1464.26,367.098 1470.71,320.719 1483.6,286.912C1496.5,253.105 1513.74,236.201 1535.32,236.201C1545.26,236.201 1554.09,240.797 1561.82,249.988C1569.54,259.18 1575.82,271.91 1580.63,288.18L1580.63,123.371L1624.14,123.371ZM1508.52,419.393C1508.52,451.299 1511.53,476.76 1517.55,495.776C1523.48,515.004 1532.51,524.618 1544.65,524.618C1556.8,524.618 1566.03,515.109 1572.36,496.093C1578.68,477.077 1581.84,452.461 1581.84,422.246C1581.84,379.987 1576.77,349.772 1566.63,331.601C1560.41,320.613 1553.18,315.12 1544.95,315.12C1532.41,315.12 1523.2,325.103 1517.33,345.071C1511.46,365.038 1508.52,389.812 1508.52,419.393Z" style="fill:rgb(238,98,98);fill-rule:nonzero;"/>
                <path d="M1733.9,119.884L1733.9,193.414C1731.5,192.781 1727.46,192.305 1721.79,191.988C1716.11,191.671 1712.2,194.312 1710.04,199.912C1707.88,205.511 1706.81,211.691 1706.81,218.453L1706.81,247.611L1734.96,247.611L1734.96,311.316L1706.81,311.316L1706.81,589.907L1664.05,589.907L1664.05,311.316L1640.11,311.316L1640.11,247.611L1663.6,247.611L1663.6,225.426C1663.6,188.449 1666.56,162.988 1672.48,149.043C1678.7,128.336 1693.71,117.983 1717.49,117.983C1720.2,117.983 1722.66,118.141 1724.87,118.458C1727.08,118.775 1730.09,119.25 1733.9,119.884Z" style="fill:rgb(238,98,98);fill-rule:nonzero;"/>
                <path d="M1771.7,531.094C1781.92,515.315 1791.97,499.297 1801.85,483.04C1811.74,466.783 1821.79,451.004 1832.01,435.703C1825.87,425.183 1819.74,414.903 1813.61,404.862C1807.48,394.82 1801.23,384.779 1794.87,374.738C1793.28,372.347 1791.29,369.478 1788.91,366.131C1786.52,362.784 1784.08,359.078 1781.58,355.014C1779.08,350.95 1776.7,346.766 1774.43,342.462C1772.16,338.159 1770.45,333.617 1769.32,328.835C1767.27,320.706 1766.37,312.339 1766.59,303.732C1766.82,295.125 1767.9,287.355 1769.83,280.422C1771.76,273.489 1774.54,268.229 1778.18,264.643C1781.81,261.057 1786.01,260.459 1790.78,262.85C1794.87,264.762 1798.73,268.946 1802.37,275.401C1806,281.856 1809.41,287.714 1812.59,292.973C1817.81,301.58 1823.04,310.187 1828.26,318.794C1833.48,327.401 1838.71,336.246 1843.93,345.331C1847.34,351.069 1849.78,355.134 1851.26,357.524C1852.73,359.915 1854.1,362.186 1855.34,364.338C1856.59,366.49 1858.13,369 1859.94,371.869C1861.76,374.738 1864.49,379.28 1868.12,385.496C1872.44,392.191 1876.35,398.765 1879.88,405.22C1883.39,411.675 1885.72,420.641 1886.86,432.116C1887.54,440.245 1886.97,447.776 1885.16,454.709C1883.34,461.642 1881.01,467.858 1878.17,473.357C1875.33,478.856 1872.21,483.757 1868.8,488.061C1865.39,492.364 1862.56,496.428 1860.28,500.253C1852.34,512.685 1844.5,525.118 1836.78,537.55C1829.05,549.982 1821.22,562.414 1813.27,574.846C1809.86,580.105 1806.45,585.724 1803.05,591.701C1799.64,597.677 1795.89,601.861 1791.8,604.252C1786.12,607.599 1781.24,607.599 1777.15,604.252C1773.07,600.905 1770,595.645 1767.95,588.473C1765.91,581.301 1765,572.813 1765.23,563.011C1765.46,553.209 1767.05,543.526 1770,533.963L1771.7,531.094Z" style="fill:rgb(238,99,99);fill-rule:nonzero;"/>
            </g>
        </g>
    </g>
    <path d="M998.13,1409.6C1004.01,1396.08 1009.89,1382.46 1015.77,1368.75L805.349,1731.88L772.65,1710.62C768.818,1708.51 763.538,1705.48 759.821,1702.96C753.587,1698.74 746.395,1694.05 740.516,1689.73C727.656,1680.18 714.968,1670.63 702.452,1661.07L697.451,1657.25C684.935,1647.7 672.247,1638.15 659.387,1628.59C655.468,1625.46 650.667,1622.13 644.984,1618.6C639.301,1615.07 633.912,1611.05 628.817,1606.55C623.722,1602.04 619.606,1597.04 616.471,1591.56C613.336,1586.07 612.16,1579.99 612.944,1573.33C614.511,1563.14 618.725,1555.2 625.583,1549.52C632.442,1543.84 639.791,1538.06 647.629,1532.18C660.955,1521.99 674.182,1511.6 687.312,1501.02C700.441,1490.44 713.669,1479.86 726.995,1469.27C734.833,1463 742.77,1456.14 750.804,1448.7C758.839,1441.25 767.951,1436.16 778.141,1433.41C781.613,1432.59 784.912,1432.18 788.035,1432.19L788.381,1432.19C792.528,1432.25 796.366,1433.05 799.893,1434.59C806.164,1437.33 811.063,1441.45 814.59,1446.93C818.118,1452.42 820.175,1458.69 820.763,1465.75C821.351,1472.8 819.881,1479.66 816.354,1486.32C814.394,1490.24 811.553,1494.06 807.83,1497.79C804.106,1501.51 799.991,1505.04 795.484,1508.37C790.977,1511.7 786.665,1514.74 782.55,1517.48C778.435,1520.23 775.006,1522.58 772.262,1524.54C761.288,1533.16 750.412,1541.59 739.634,1549.82C728.856,1558.05 718.176,1566.47 707.594,1575.1C726.015,1587.64 743.945,1600.77 761.386,1614.48C778.696,1628.1 796.103,1641.52 813.607,1654.75L998.13,1409.6Z" style="fill:rgb(238,99,99);"/>
    <path d="M971.675,1292.91C976.378,1285.07 982.257,1279.78 989.312,1277.03C996.366,1274.29 1003.42,1273.61 1010.48,1274.98C1017.53,1276.35 1023.7,1279.78 1028.99,1285.26C1034.29,1290.75 1037.32,1298 1038.11,1307.02C1038.5,1311.72 1037.71,1317.11 1035.76,1323.18C1033.8,1329.26 1031.54,1335.33 1028.99,1341.41C1026.45,1347.48 1023.8,1353.07 1021.06,1358.16C1018.31,1363.26 1016.55,1366.79 1015.77,1368.75C1009.89,1382.46 1004.01,1396.08 998.13,1409.6C992.251,1423.12 986.372,1436.74 980.493,1450.46C959.721,1498.67 939.047,1546.58 918.471,1594.2C897.894,1641.82 882.401,1678.03 861.237,1725.46C858.101,1732.51 853.104,1737.51 846.245,1740.45C839.387,1743.39 832.332,1744.07 825.081,1742.51C817.831,1740.94 811.364,1737.51 805.681,1732.22C799.998,1726.93 796.764,1719.58 795.981,1710.17C795.197,1699.59 797.058,1689.99 801.566,1681.37C806.073,1672.74 805.106,1674.64 809.417,1664.45C815.296,1650.74 821.175,1637.12 827.054,1623.6C832.933,1610.07 838.811,1596.45 844.69,1582.74C846.258,1579.21 848.708,1573.72 852.039,1566.28C855.37,1558.83 858.996,1550.6 862.915,1541.59C866.834,1532.57 870.851,1523.26 874.967,1513.66C879.082,1504.06 882.903,1495.34 886.431,1487.5C889.958,1479.66 892.799,1473.1 894.955,1467.81C897.111,1462.51 898.188,1459.87 898.188,1459.87C910.338,1432.43 922.292,1405.1 934.05,1377.86C945.808,1350.62 957.565,1323.48 969.323,1296.43L971.675,1292.91Z" style="fill:rgb(238,99,99);fill-rule:nonzero;"/>
</svg>
